<?xml version="1.0" standalone="no"?>
<!DOCTYPE svg PUBLIC "-//W3C//DTD SVG 1.1//EN" "http://www.w3.org/Graphics/SVG/1.1/DTD/svg11.dtd" >
<svg xmlns="http://www.w3.org/2000/svg">
<metadata>
This is a custom SVG webfont generated by Font Squirrel.
</metadata>
<defs>
<font id="webfontNyC6zGdk" horiz-adv-x="800" >
<font-face units-per-em="1000" ascent="800" descent="-200" />
<missing-glyph horiz-adv-x="500" />
<glyph unicode=" " />
<glyph unicode="!" d="M405 360l-40 -44l-43 44v321l40 44l43 -44v-321zM436 -104q0 -29 -21.5 -51t-50.5 -22q-30 0 -51.5 21.5t-21.5 51.5q0 31 21 51t52 20q30 0 51 -20.5t21 -50.5z" />
<glyph unicode="&#x22;" d="M405 560l-40 -44l-43 44v121l40 44l43 -44v-121zM103 560l-40 -44l-42 44v121l40 44l42 -44v-121z" />
<glyph unicode="#" d="M706 360l-40 -44l-42 44v323l40 44l42 -44v-323zM405 360l-40 -44l-43 44v321l40 44l43 -44v-321zM651 303l-44 -42h-185l-44 40l44 42h185zM706 -77l-40 -45l-42 45v320l40 44l42 -44v-320zM103 360l-40 -44l-42 44v321l40 44l42 -44v-321zM349 303l-44 -42h-185l-44 40 l44 42h185zM405 -77l-40 -45l-43 45v320l40 44l43 -44v-320zM103 -77l-40 -45l-42 45v320l40 44l42 -44v-320z" />
<glyph unicode="$" d="M651 741l-44 -42h-185l-44 40l44 42h185zM349 741l-44 -42h-185l-44 40l44 42h185zM651 303l-44 -42h-185l-44 40l44 42h185zM706 -77l-40 -45l-42 45v320l40 44l42 -44v-320zM103 360l-40 -44l-42 44v321l40 44l42 -44v-321zM349 303l-44 -42h-185l-44 40l44 42h185z M651 -135l-44 -42h-185l-44 40l44 42h185zM349 -135l-44 -42h-185l-44 40l44 42h185zM405 360l-40 -44l-43 44v321l40 44l43 -44v-321zM405 -77l-40 -45l-43 45v320l40 44l43 -44v-320z" />
<glyph unicode="%" d="M609 577l-153 -219h-37v86l168 240h22v-107zM308 160l-168 -240h-22v106l153 220h37v-86zM349 741l-44 -42h-185l-44 40l44 42h185zM405 360l-40 -44l-43 44v321l40 44l43 -44v-321zM651 303l-44 -42h-185l-44 40l44 42h185zM706 -77l-40 -45l-42 45v320l40 44l42 -44 v-320zM103 360l-40 -44l-42 44v321l40 44l42 -44v-321zM349 303l-44 -42h-185l-44 40l44 42h185zM405 -77l-40 -45l-43 45v320l40 44l43 -44v-320zM651 -135l-44 -42h-185l-44 40l44 42h185z" />
<glyph unicode="&#x26;" d="M349 741l-44 -42h-185l-44 40l44 42h185zM405 360l-40 -44l-43 44v321l40 44l43 -44v-321zM103 360l-40 -44l-42 44v321l40 44l42 -44v-321zM349 303l-44 -42h-185l-44 40l44 42h185zM405 -77l-40 -45l-43 45v320l40 44l43 -44v-320zM651 -135l-44 -42h-185l-44 40l44 42 h185zM103 -77l-40 -45l-42 45v320l40 44l42 -44v-320zM349 -135l-44 -42h-185l-44 40l44 42h185zM609 160l-168 -240h-22v106l154 220h36v-86z" />
<glyph unicode="'" d="M405 560l-40 -44l-43 44v121l40 44l43 -44v-121z" />
<glyph unicode="(" d="M651 741l-44 -42h-185l-44 40l44 42h185zM405 360l-40 -44l-43 44v321l40 44l43 -44v-321zM405 -77l-40 -45l-43 45v320l40 44l43 -44v-320zM651 -135l-44 -42h-185l-44 40l44 42h185z" />
<glyph unicode=")" d="M349 741l-44 -42h-185l-44 40l44 42h185zM405 360l-40 -44l-43 44v321l40 44l43 -44v-321zM405 -77l-40 -45l-43 45v320l40 44l43 -44v-320zM349 -135l-44 -42h-185l-44 40l44 42h185z" />
<glyph unicode="*" d="M609 577l-153 -219h-37v86l168 240h22v-107zM308 358h-37l-153 219v107h22l168 -240v-86zM609 -80h-22l-168 240v86h37l153 -220v-106zM308 160l-168 -240h-22v106l153 220h37v-86z" />
<glyph unicode="+" d="M405 360l-40 -44l-43 44v321l40 44l43 -44v-321zM651 303l-44 -42h-185l-44 40l44 42h185zM349 303l-44 -42h-185l-44 40l44 42h185zM405 -77l-40 -45l-43 45v320l40 44l43 -44v-320z" />
<glyph unicode="," d="M436 -104q0 -32 -20 -79q-23 -54 -52 -54t-53 53q-20 45 -20 80q0 31 21 51t52 20q30 0 51 -20.5t21 -50.5z" />
<glyph unicode="-" d="M651 303l-44 -42h-185l-44 40l44 42h185zM349 303l-44 -42h-185l-44 40l44 42h185z" />
<glyph unicode="." d="M436 -104q0 -29 -21.5 -51t-50.5 -22q-30 0 -51.5 21.5t-21.5 51.5q0 31 21 51t52 20q30 0 51 -20.5t21 -50.5z" />
<glyph unicode="/" d="M609 577l-153 -219h-37v86l168 240h22v-107zM308 160l-168 -240h-22v106l153 220h37v-86z" />
<glyph unicode="0" d="M651 741l-44 -42h-185l-44 40l44 42h185zM706 360l-40 -44l-42 44v323l40 44l42 -44v-323zM609 577l-153 -219h-37v86l168 240h22v-107zM349 741l-44 -42h-185l-44 40l44 42h185zM706 -77l-40 -45l-42 45v320l40 44l42 -44v-320zM103 360l-40 -44l-42 44v321l40 44 l42 -44v-321zM651 -135l-44 -42h-185l-44 40l44 42h185zM308 160l-168 -240h-22v106l153 220h37v-86zM103 -77l-40 -45l-42 45v320l40 44l42 -44v-320zM349 -135l-44 -42h-185l-44 40l44 42h185z" />
<glyph unicode="1" d="M349 741l-44 -42h-185l-44 40l44 42h185zM405 360l-40 -44l-43 44v321l40 44l43 -44v-321zM405 -77l-40 -45l-43 45v320l40 44l43 -44v-320zM651 -135l-44 -42h-185l-44 40l44 42h185zM349 -135l-44 -42h-185l-44 40l44 42h185z" />
<glyph unicode="2" d="M651 741l-44 -42h-185l-44 40l44 42h185zM706 360l-40 -44l-42 44v323l40 44l42 -44v-323zM349 741l-44 -42h-185l-44 40l44 42h185zM651 303l-44 -42h-185l-44 40l44 42h185zM349 303l-44 -42h-185l-44 40l44 42h185zM651 -135l-44 -42h-185l-44 40l44 42h185zM103 -77 l-40 -45l-42 45v320l40 44l42 -44v-320zM349 -135l-44 -42h-185l-44 40l44 42h185z" />
<glyph unicode="3" d="M651 741l-44 -42h-185l-44 40l44 42h185zM706 360l-40 -44l-42 44v323l40 44l42 -44v-323zM349 741l-44 -42h-185l-44 40l44 42h185zM651 303l-44 -42h-185l-44 40l44 42h185zM706 -77l-40 -45l-42 45v320l40 44l42 -44v-320zM651 -135l-44 -42h-185l-44 40l44 42h185z M349 -135l-44 -42h-185l-44 40l44 42h185z" />
<glyph unicode="4" d="M706 360l-40 -44l-42 44v323l40 44l42 -44v-323zM651 303l-44 -42h-185l-44 40l44 42h185zM706 -77l-40 -45l-42 45v320l40 44l42 -44v-320zM103 360l-40 -44l-42 44v321l40 44l42 -44v-321zM349 303l-44 -42h-185l-44 40l44 42h185z" />
<glyph unicode="5" d="M651 741l-44 -42h-185l-44 40l44 42h185zM349 741l-44 -42h-185l-44 40l44 42h185zM651 303l-44 -42h-185l-44 40l44 42h185zM706 -77l-40 -45l-42 45v320l40 44l42 -44v-320zM103 360l-40 -44l-42 44v321l40 44l42 -44v-321zM349 303l-44 -42h-185l-44 40l44 42h185z M651 -135l-44 -42h-185l-44 40l44 42h185zM349 -135l-44 -42h-185l-44 40l44 42h185z" />
<glyph unicode="6" d="M651 741l-44 -42h-185l-44 40l44 42h185zM349 741l-44 -42h-185l-44 40l44 42h185zM651 303l-44 -42h-185l-44 40l44 42h185zM706 -77l-40 -45l-42 45v320l40 44l42 -44v-320zM103 360l-40 -44l-42 44v321l40 44l42 -44v-321zM349 303l-44 -42h-185l-44 40l44 42h185z M651 -135l-44 -42h-185l-44 40l44 42h185zM103 -77l-40 -45l-42 45v320l40 44l42 -44v-320zM349 -135l-44 -42h-185l-44 40l44 42h185z" />
<glyph unicode="7" d="M651 741l-44 -42h-185l-44 40l44 42h185zM609 577l-153 -219h-37v86l168 240h22v-107zM349 741l-44 -42h-185l-44 40l44 42h185zM308 160l-168 -240h-22v106l153 220h37v-86z" />
<glyph unicode="8" d="M651 741l-44 -42h-185l-44 40l44 42h185zM706 360l-40 -44l-42 44v323l40 44l42 -44v-323zM349 741l-44 -42h-185l-44 40l44 42h185zM651 303l-44 -42h-185l-44 40l44 42h185zM706 -77l-40 -45l-42 45v320l40 44l42 -44v-320zM103 360l-40 -44l-42 44v321l40 44l42 -44 v-321zM349 303l-44 -42h-185l-44 40l44 42h185zM651 -135l-44 -42h-185l-44 40l44 42h185zM103 -77l-40 -45l-42 45v320l40 44l42 -44v-320zM349 -135l-44 -42h-185l-44 40l44 42h185z" />
<glyph unicode="9" d="M651 741l-44 -42h-185l-44 40l44 42h185zM706 360l-40 -44l-42 44v323l40 44l42 -44v-323zM349 741l-44 -42h-185l-44 40l44 42h185zM651 303l-44 -42h-185l-44 40l44 42h185zM706 -77l-40 -45l-42 45v320l40 44l42 -44v-320zM103 360l-40 -44l-42 44v321l40 44l42 -44 v-321zM349 303l-44 -42h-185l-44 40l44 42h185zM651 -135l-44 -42h-185l-44 40l44 42h185zM349 -135l-44 -42h-185l-44 40l44 42h185z" />
<glyph unicode=":" d="M436 435q0 -31 -20.5 -51t-51.5 -20q-30 0 -51.5 20.5t-21.5 50.5t21.5 51.5t51.5 21.5t51 -21.5t21 -51.5zM436 169q0 -29 -21.5 -51.5t-50.5 -22.5q-30 0 -51.5 22t-21.5 52q0 31 21 51t52 20q29 0 50.5 -21t21.5 -50z" />
<glyph unicode=";" d="M436 435q0 -31 -20.5 -51t-51.5 -20q-30 0 -51.5 20.5t-21.5 50.5t21.5 51.5t51.5 21.5t51 -21.5t21 -51.5zM436 169q0 -35 -21 -81q-24 -53 -51 -53q-30 0 -53 54q-20 47 -20 80q0 31 21 51t52 20q29 0 50.5 -21t21.5 -50z" />
<glyph unicode="&#x3c;" d="M609 577l-153 -219h-37v86l168 240h22v-107zM609 -80h-22l-168 240v86h37l153 -220v-106z" />
<glyph unicode="=" d="M651 403l-44 -42h-185l-44 40l44 42h185zM349 403l-44 -42h-185l-44 40l44 42h185zM651 203l-44 -42h-185l-44 40l44 42h185zM349 203l-44 -42h-185l-44 40l44 42h185z" />
<glyph unicode="&#x3e;" d="M308 358h-37l-153 219v107h22l168 -240v-86zM308 160l-168 -240h-22v106l153 220h37v-86z" />
<glyph unicode="?" d="M651 741l-44 -42h-185l-44 40l44 42h185zM706 360l-40 -44l-42 44v323l40 44l42 -44v-323zM349 741l-44 -42h-185l-44 40l44 42h185zM651 303l-44 -42h-185l-44 40l44 42h185zM405 -77l-40 -45l-43 45v320l40 44l43 -44v-320z" />
<glyph unicode="@" d="M651 741l-44 -42h-185l-44 40l44 42h185zM706 360l-40 -44l-42 44v323l40 44l42 -44v-323zM609 577l-153 -219h-37v86l168 240h22v-107zM349 741l-44 -42h-185l-44 40l44 42h185zM405 360l-40 -44l-43 44v321l40 44l43 -44v-321zM651 303l-44 -42h-185l-44 40l44 42h185z M706 -77l-40 -45l-42 45v320l40 44l42 -44v-320zM308 358h-37l-153 219v107h22l168 -240v-86zM609 -80h-22l-168 240v86h37l153 -220v-106zM103 360l-40 -44l-42 44v321l40 44l42 -44v-321zM349 303l-44 -42h-185l-44 40l44 42h185zM405 -77l-40 -45l-43 45v320l40 44 l43 -44v-320zM651 -135l-44 -42h-185l-44 40l44 42h185zM308 160l-168 -240h-22v106l153 220h37v-86zM103 -77l-40 -45l-42 45v320l40 44l42 -44v-320zM349 -135l-44 -42h-185l-44 40l44 42h185z" />
<glyph unicode="A" d="M609 358h-36l-154 219v107h22l168 -240v-86zM651 303l-44 -42h-185l-44 40l44 42h185zM706 -77l-40 -45l-42 45v320l40 44l42 -44v-320zM308 577l-154 -219h-36v86l168 240h22v-107zM349 303l-44 -42h-185l-44 40l44 42h185zM103 -77l-40 -45l-42 45v320l40 44l42 -44 v-320z" />
<glyph unicode="B" d="M651 741l-44 -42h-185l-44 40l44 42h185zM706 360l-40 -44l-42 44v323l40 44l42 -44v-323zM349 741l-44 -42h-185l-44 40l44 42h185zM651 303l-44 -42h-185l-44 40l44 42h185zM706 -77l-40 -45l-42 45v320l40 44l42 -44v-320zM103 360l-40 -44l-42 44v321l40 44l42 -44 v-321zM349 303l-44 -42h-185l-44 40l44 42h185zM651 -135l-44 -42h-185l-44 40l44 42h185zM103 -77l-40 -45l-42 45v320l40 44l42 -44v-320zM349 -135l-44 -42h-185l-44 40l44 42h185z" />
<glyph unicode="C" d="M651 741l-44 -42h-185l-44 40l44 42h185zM349 741l-44 -42h-185l-44 40l44 42h185zM103 360l-40 -44l-42 44v321l40 44l42 -44v-321zM651 -135l-44 -42h-185l-44 40l44 42h185zM103 -77l-40 -45l-42 45v320l40 44l42 -44v-320zM349 -135l-44 -42h-185l-44 40l44 42h185z " />
<glyph unicode="D" d="M609 358h-36l-154 219v107h22l168 -240v-86zM349 741l-44 -42h-185l-44 40l44 42h185zM609 160l-168 -240h-22v106l154 220h36v-86zM103 360l-40 -44l-42 44v321l40 44l42 -44v-321zM103 -77l-40 -45l-42 45v320l40 44l42 -44v-320zM349 -135l-44 -42h-185l-44 40l44 42 h185z" />
<glyph unicode="E" d="M651 741l-44 -42h-185l-44 40l44 42h185zM349 741l-44 -42h-185l-44 40l44 42h185zM651 303l-44 -42h-185l-44 40l44 42h185zM103 360l-40 -44l-42 44v321l40 44l42 -44v-321zM349 303l-44 -42h-185l-44 40l44 42h185zM651 -135l-44 -42h-185l-44 40l44 42h185zM103 -77 l-40 -45l-42 45v320l40 44l42 -44v-320zM349 -135l-44 -42h-185l-44 40l44 42h185z" />
<glyph unicode="F" d="M651 741l-44 -42h-185l-44 40l44 42h185zM349 741l-44 -42h-185l-44 40l44 42h185zM651 303l-44 -42h-185l-44 40l44 42h185zM103 360l-40 -44l-42 44v321l40 44l42 -44v-321zM349 303l-44 -42h-185l-44 40l44 42h185zM103 -77l-40 -45l-42 45v320l40 44l42 -44v-320z " />
<glyph unicode="G" d="M651 741l-44 -42h-185l-44 40l44 42h185zM349 741l-44 -42h-185l-44 40l44 42h185zM651 303l-44 -42h-185l-44 40l44 42h185zM706 -77l-40 -45l-42 45v320l40 44l42 -44v-320zM103 360l-40 -44l-42 44v321l40 44l42 -44v-321zM651 -135l-44 -42h-185l-44 40l44 42h185z M103 -77l-40 -45l-42 45v320l40 44l42 -44v-320zM349 -135l-44 -42h-185l-44 40l44 42h185z" />
<glyph unicode="H" d="M706 360l-40 -44l-42 44v323l40 44l42 -44v-323zM651 303l-44 -42h-185l-44 40l44 42h185zM706 -77l-40 -45l-42 45v320l40 44l42 -44v-320zM103 360l-40 -44l-42 44v321l40 44l42 -44v-321zM349 303l-44 -42h-185l-44 40l44 42h185zM103 -77l-40 -45l-42 45v320l40 44 l42 -44v-320z" />
<glyph unicode="I" d="M651 741l-44 -42h-185l-44 40l44 42h185zM349 741l-44 -42h-185l-44 40l44 42h185zM405 360l-40 -44l-43 44v321l40 44l43 -44v-321zM405 -77l-40 -45l-43 45v320l40 44l43 -44v-320zM651 -135l-44 -42h-185l-44 40l44 42h185zM349 -135l-44 -42h-185l-44 40l44 42h185z " />
<glyph unicode="J" d="M651 741l-44 -42h-185l-44 40l44 42h185zM706 360l-40 -44l-42 44v323l40 44l42 -44v-323zM706 -77l-40 -45l-42 45v320l40 44l42 -44v-320zM651 -135l-44 -42h-185l-44 40l44 42h185zM103 -77l-40 -45l-42 45v320l40 44l42 -44v-320zM349 -135l-44 -42h-185l-44 40 l44 42h185z" />
<glyph unicode="K" d="M609 577l-153 -219h-37v86l168 240h22v-107zM609 -80h-22l-168 240v86h37l153 -220v-106zM103 360l-40 -44l-42 44v321l40 44l42 -44v-321zM349 303l-44 -42h-185l-44 40l44 42h185zM103 -77l-40 -45l-42 45v320l40 44l42 -44v-320z" />
<glyph unicode="L" d="M103 360l-40 -44l-42 44v321l40 44l42 -44v-321zM651 -135l-44 -42h-185l-44 40l44 42h185zM103 -77l-40 -45l-42 45v320l40 44l42 -44v-320zM349 -135l-44 -42h-185l-44 40l44 42h185z" />
<glyph unicode="M" d="M706 360l-40 -44l-42 44v323l40 44l42 -44v-323zM609 577l-153 -219h-37v86l168 240h22v-107zM706 -77l-40 -45l-42 45v320l40 44l42 -44v-320zM308 358h-37l-153 219v107h22l168 -240v-86zM103 360l-40 -44l-42 44v321l40 44l42 -44v-321zM103 -77l-40 -45l-42 45v320 l40 44l42 -44v-320z" />
<glyph unicode="N" d="M706 360l-40 -44l-42 44v323l40 44l42 -44v-323zM706 -77l-40 -45l-42 45v320l40 44l42 -44v-320zM308 358h-37l-153 219v107h22l168 -240v-86zM609 -80h-22l-168 240v86h37l153 -220v-106zM103 360l-40 -44l-42 44v321l40 44l42 -44v-321zM103 -77l-40 -45l-42 45v320 l40 44l42 -44v-320z" />
<glyph unicode="O" d="M651 741l-44 -42h-185l-44 40l44 42h185zM706 360l-40 -44l-42 44v323l40 44l42 -44v-323zM349 741l-44 -42h-185l-44 40l44 42h185zM706 -77l-40 -45l-42 45v320l40 44l42 -44v-320zM103 360l-40 -44l-42 44v321l40 44l42 -44v-321zM651 -135l-44 -42h-185l-44 40l44 42 h185zM103 -77l-40 -45l-42 45v320l40 44l42 -44v-320zM349 -135l-44 -42h-185l-44 40l44 42h185z" />
<glyph unicode="P" d="M651 741l-44 -42h-185l-44 40l44 42h185zM706 360l-40 -44l-42 44v323l40 44l42 -44v-323zM349 741l-44 -42h-185l-44 40l44 42h185zM651 303l-44 -42h-185l-44 40l44 42h185zM103 360l-40 -44l-42 44v321l40 44l42 -44v-321zM349 303l-44 -42h-185l-44 40l44 42h185z M103 -77l-40 -45l-42 45v320l40 44l42 -44v-320z" />
<glyph unicode="Q" d="M651 741l-44 -42h-185l-44 40l44 42h185zM706 360l-40 -44l-42 44v323l40 44l42 -44v-323zM349 741l-44 -42h-185l-44 40l44 42h185zM706 -77l-40 -45l-42 45v320l40 44l42 -44v-320zM609 -80h-22l-168 240v86h37l153 -220v-106zM103 360l-40 -44l-42 44v321l40 44 l42 -44v-321zM651 -135l-44 -42h-185l-44 40l44 42h185zM103 -77l-40 -45l-42 45v320l40 44l42 -44v-320zM349 -135l-44 -42h-185l-44 40l44 42h185z" />
<glyph unicode="R" d="M651 741l-44 -42h-185l-44 40l44 42h185zM706 360l-40 -44l-42 44v323l40 44l42 -44v-323zM349 741l-44 -42h-185l-44 40l44 42h185zM651 303l-44 -42h-185l-44 40l44 42h185zM609 -80h-22l-168 240v86h37l153 -220v-106zM103 360l-40 -44l-42 44v321l40 44l42 -44v-321z M349 303l-44 -42h-185l-44 40l44 42h185zM103 -77l-40 -45l-42 45v320l40 44l42 -44v-320z" />
<glyph unicode="S" d="M651 741l-44 -42h-185l-44 40l44 42h185zM349 741l-44 -42h-185l-44 40l44 42h185zM651 303l-44 -42h-185l-44 40l44 42h185zM706 -77l-40 -45l-42 45v320l40 44l42 -44v-320zM103 360l-40 -44l-42 44v321l40 44l42 -44v-321zM349 303l-44 -42h-185l-44 40l44 42h185z M651 -135l-44 -42h-185l-44 40l44 42h185zM349 -135l-44 -42h-185l-44 40l44 42h185z" />
<glyph unicode="T" d="M651 741l-44 -42h-185l-44 40l44 42h185zM349 741l-44 -42h-185l-44 40l44 42h185zM405 360l-40 -44l-43 44v321l40 44l43 -44v-321zM405 -77l-40 -45l-43 45v320l40 44l43 -44v-320z" />
<glyph unicode="U" d="M706 360l-40 -44l-42 44v323l40 44l42 -44v-323zM706 -77l-40 -45l-42 45v320l40 44l42 -44v-320zM103 360l-40 -44l-42 44v321l40 44l42 -44v-321zM651 -135l-44 -42h-185l-44 40l44 42h185zM103 -77l-40 -45l-42 45v320l40 44l42 -44v-320zM349 -135l-44 -42h-185 l-44 40l44 42h185z" />
<glyph unicode="V" d="M706 360l-40 -44l-42 44v323l40 44l42 -44v-323zM609 160l-168 -240h-22v106l154 220h36v-86zM103 360l-40 -44l-42 44v321l40 44l42 -44v-321zM308 -80h-22l-168 240v86h36l154 -220v-106z" />
<glyph unicode="W" d="M706 360l-40 -44l-42 44v323l40 44l42 -44v-323zM706 -77l-40 -45l-42 45v320l40 44l42 -44v-320zM609 -80h-22l-168 240v86h37l153 -220v-106zM103 360l-40 -44l-42 44v321l40 44l42 -44v-321zM308 160l-168 -240h-22v106l153 220h37v-86zM103 -77l-40 -45l-42 45v320 l40 44l42 -44v-320z" />
<glyph unicode="X" d="M609 577l-153 -219h-37v86l168 240h22v-107zM308 358h-37l-153 219v107h22l168 -240v-86zM609 -80h-22l-168 240v86h37l153 -220v-106zM308 160l-168 -240h-22v106l153 220h37v-86z" />
<glyph unicode="Y" d="M609 577l-153 -219h-37v86l168 240h22v-107zM308 358h-37l-153 219v107h22l168 -240v-86zM405 -77l-40 -45l-43 45v320l40 44l43 -44v-320z" />
<glyph unicode="Z" d="M651 741l-44 -42h-185l-44 40l44 42h185zM609 577l-153 -219h-37v86l168 240h22v-107zM349 741l-44 -42h-185l-44 40l44 42h185zM651 -135l-44 -42h-185l-44 40l44 42h185zM308 160l-168 -240h-22v106l153 220h37v-86zM349 -135l-44 -42h-185l-44 40l44 42h185z" />
<glyph unicode="[" d="M651 741l-44 -42h-185l-44 40l44 42h185zM405 360l-40 -44l-43 44v321l40 44l43 -44v-321zM405 -77l-40 -45l-43 45v320l40 44l43 -44v-320zM651 -135l-44 -42h-185l-44 40l44 42h185z" />
<glyph unicode="\" d="M308 358h-37l-153 219v107h22l168 -240v-86zM609 -80h-22l-168 240v86h37l153 -220v-106z" />
<glyph unicode="]" d="M349 741l-44 -42h-185l-44 40l44 42h185zM405 360l-40 -44l-43 44v321l40 44l43 -44v-321zM405 -77l-40 -45l-43 45v320l40 44l43 -44v-320zM349 -135l-44 -42h-185l-44 40l44 42h185z" />
<glyph unicode="^" d="M609 358h-36l-154 219v107h22l168 -240v-86zM308 577l-154 -219h-36v86l168 240h22v-107z" />
<glyph unicode="_" d="M651 -135l-44 -42h-185l-44 40l44 42h185zM349 -135l-44 -42h-185l-44 40l44 42h185z" />
<glyph unicode="`" d="M308 358h-37l-153 219v107h22l168 -240v-86z" />
<glyph unicode="a" d="M609 358h-36l-154 219v107h22l168 -240v-86zM651 303l-44 -42h-185l-44 40l44 42h185zM706 -77l-40 -45l-42 45v320l40 44l42 -44v-320zM308 577l-154 -219h-36v86l168 240h22v-107zM349 303l-44 -42h-185l-44 40l44 42h185zM103 -77l-40 -45l-42 45v320l40 44l42 -44 v-320z" />
<glyph unicode="b" d="M651 741l-44 -42h-185l-44 40l44 42h185zM706 360l-40 -44l-42 44v323l40 44l42 -44v-323zM349 741l-44 -42h-185l-44 40l44 42h185zM651 303l-44 -42h-185l-44 40l44 42h185zM706 -77l-40 -45l-42 45v320l40 44l42 -44v-320zM103 360l-40 -44l-42 44v321l40 44l42 -44 v-321zM349 303l-44 -42h-185l-44 40l44 42h185zM651 -135l-44 -42h-185l-44 40l44 42h185zM103 -77l-40 -45l-42 45v320l40 44l42 -44v-320zM349 -135l-44 -42h-185l-44 40l44 42h185z" />
<glyph unicode="c" d="M651 741l-44 -42h-185l-44 40l44 42h185zM349 741l-44 -42h-185l-44 40l44 42h185zM103 360l-40 -44l-42 44v321l40 44l42 -44v-321zM651 -135l-44 -42h-185l-44 40l44 42h185zM103 -77l-40 -45l-42 45v320l40 44l42 -44v-320zM349 -135l-44 -42h-185l-44 40l44 42h185z " />
<glyph unicode="d" d="M609 358h-36l-154 219v107h22l168 -240v-86zM349 741l-44 -42h-185l-44 40l44 42h185zM609 160l-168 -240h-22v106l154 220h36v-86zM103 360l-40 -44l-42 44v321l40 44l42 -44v-321zM103 -77l-40 -45l-42 45v320l40 44l42 -44v-320zM349 -135l-44 -42h-185l-44 40l44 42 h185z" />
<glyph unicode="e" d="M651 741l-44 -42h-185l-44 40l44 42h185zM349 741l-44 -42h-185l-44 40l44 42h185zM651 303l-44 -42h-185l-44 40l44 42h185zM103 360l-40 -44l-42 44v321l40 44l42 -44v-321zM349 303l-44 -42h-185l-44 40l44 42h185zM651 -135l-44 -42h-185l-44 40l44 42h185zM103 -77 l-40 -45l-42 45v320l40 44l42 -44v-320zM349 -135l-44 -42h-185l-44 40l44 42h185z" />
<glyph unicode="f" d="M651 741l-44 -42h-185l-44 40l44 42h185zM349 741l-44 -42h-185l-44 40l44 42h185zM651 303l-44 -42h-185l-44 40l44 42h185zM103 360l-40 -44l-42 44v321l40 44l42 -44v-321zM349 303l-44 -42h-185l-44 40l44 42h185zM103 -77l-40 -45l-42 45v320l40 44l42 -44v-320z " />
<glyph unicode="g" d="M651 741l-44 -42h-185l-44 40l44 42h185zM349 741l-44 -42h-185l-44 40l44 42h185zM651 303l-44 -42h-185l-44 40l44 42h185zM706 -77l-40 -45l-42 45v320l40 44l42 -44v-320zM103 360l-40 -44l-42 44v321l40 44l42 -44v-321zM651 -135l-44 -42h-185l-44 40l44 42h185z M103 -77l-40 -45l-42 45v320l40 44l42 -44v-320zM349 -135l-44 -42h-185l-44 40l44 42h185z" />
<glyph unicode="h" d="M706 360l-40 -44l-42 44v323l40 44l42 -44v-323zM651 303l-44 -42h-185l-44 40l44 42h185zM706 -77l-40 -45l-42 45v320l40 44l42 -44v-320zM103 360l-40 -44l-42 44v321l40 44l42 -44v-321zM349 303l-44 -42h-185l-44 40l44 42h185zM103 -77l-40 -45l-42 45v320l40 44 l42 -44v-320z" />
<glyph unicode="i" d="M651 741l-44 -42h-185l-44 40l44 42h185zM349 741l-44 -42h-185l-44 40l44 42h185zM405 360l-40 -44l-43 44v321l40 44l43 -44v-321zM405 -77l-40 -45l-43 45v320l40 44l43 -44v-320zM651 -135l-44 -42h-185l-44 40l44 42h185zM349 -135l-44 -42h-185l-44 40l44 42h185z " />
<glyph unicode="j" d="M651 741l-44 -42h-185l-44 40l44 42h185zM706 360l-40 -44l-42 44v323l40 44l42 -44v-323zM706 -77l-40 -45l-42 45v320l40 44l42 -44v-320zM651 -135l-44 -42h-185l-44 40l44 42h185zM103 -77l-40 -45l-42 45v320l40 44l42 -44v-320zM349 -135l-44 -42h-185l-44 40 l44 42h185z" />
<glyph unicode="k" d="M609 577l-153 -219h-37v86l168 240h22v-107zM609 -80h-22l-168 240v86h37l153 -220v-106zM103 360l-40 -44l-42 44v321l40 44l42 -44v-321zM349 303l-44 -42h-185l-44 40l44 42h185zM103 -77l-40 -45l-42 45v320l40 44l42 -44v-320z" />
<glyph unicode="l" d="M103 360l-40 -44l-42 44v321l40 44l42 -44v-321zM651 -135l-44 -42h-185l-44 40l44 42h185zM103 -77l-40 -45l-42 45v320l40 44l42 -44v-320zM349 -135l-44 -42h-185l-44 40l44 42h185z" />
<glyph unicode="m" d="M706 360l-40 -44l-42 44v323l40 44l42 -44v-323zM609 577l-153 -219h-37v86l168 240h22v-107zM706 -77l-40 -45l-42 45v320l40 44l42 -44v-320zM308 358h-37l-153 219v107h22l168 -240v-86zM103 360l-40 -44l-42 44v321l40 44l42 -44v-321zM103 -77l-40 -45l-42 45v320 l40 44l42 -44v-320z" />
<glyph unicode="n" d="M706 360l-40 -44l-42 44v323l40 44l42 -44v-323zM706 -77l-40 -45l-42 45v320l40 44l42 -44v-320zM308 358h-37l-153 219v107h22l168 -240v-86zM609 -80h-22l-168 240v86h37l153 -220v-106zM103 360l-40 -44l-42 44v321l40 44l42 -44v-321zM103 -77l-40 -45l-42 45v320 l40 44l42 -44v-320z" />
<glyph unicode="o" d="M651 741l-44 -42h-185l-44 40l44 42h185zM706 360l-40 -44l-42 44v323l40 44l42 -44v-323zM349 741l-44 -42h-185l-44 40l44 42h185zM706 -77l-40 -45l-42 45v320l40 44l42 -44v-320zM103 360l-40 -44l-42 44v321l40 44l42 -44v-321zM651 -135l-44 -42h-185l-44 40l44 42 h185zM103 -77l-40 -45l-42 45v320l40 44l42 -44v-320zM349 -135l-44 -42h-185l-44 40l44 42h185z" />
<glyph unicode="p" d="M651 741l-44 -42h-185l-44 40l44 42h185zM706 360l-40 -44l-42 44v323l40 44l42 -44v-323zM349 741l-44 -42h-185l-44 40l44 42h185zM651 303l-44 -42h-185l-44 40l44 42h185zM103 360l-40 -44l-42 44v321l40 44l42 -44v-321zM349 303l-44 -42h-185l-44 40l44 42h185z M103 -77l-40 -45l-42 45v320l40 44l42 -44v-320z" />
<glyph unicode="q" d="M651 741l-44 -42h-185l-44 40l44 42h185zM706 360l-40 -44l-42 44v323l40 44l42 -44v-323zM349 741l-44 -42h-185l-44 40l44 42h185zM706 -77l-40 -45l-42 45v320l40 44l42 -44v-320zM609 -80h-22l-168 240v86h37l153 -220v-106zM103 360l-40 -44l-42 44v321l40 44 l42 -44v-321zM651 -135l-44 -42h-185l-44 40l44 42h185zM103 -77l-40 -45l-42 45v320l40 44l42 -44v-320zM349 -135l-44 -42h-185l-44 40l44 42h185z" />
<glyph unicode="r" d="M651 741l-44 -42h-185l-44 40l44 42h185zM706 360l-40 -44l-42 44v323l40 44l42 -44v-323zM349 741l-44 -42h-185l-44 40l44 42h185zM651 303l-44 -42h-185l-44 40l44 42h185zM609 -80h-22l-168 240v86h37l153 -220v-106zM103 360l-40 -44l-42 44v321l40 44l42 -44v-321z M349 303l-44 -42h-185l-44 40l44 42h185zM103 -77l-40 -45l-42 45v320l40 44l42 -44v-320z" />
<glyph unicode="s" d="M651 741l-44 -42h-185l-44 40l44 42h185zM349 741l-44 -42h-185l-44 40l44 42h185zM651 303l-44 -42h-185l-44 40l44 42h185zM706 -77l-40 -45l-42 45v320l40 44l42 -44v-320zM103 360l-40 -44l-42 44v321l40 44l42 -44v-321zM349 303l-44 -42h-185l-44 40l44 42h185z M651 -135l-44 -42h-185l-44 40l44 42h185zM349 -135l-44 -42h-185l-44 40l44 42h185z" />
<glyph unicode="t" d="M651 741l-44 -42h-185l-44 40l44 42h185zM349 741l-44 -42h-185l-44 40l44 42h185zM405 360l-40 -44l-43 44v321l40 44l43 -44v-321zM405 -77l-40 -45l-43 45v320l40 44l43 -44v-320z" />
<glyph unicode="u" d="M706 360l-40 -44l-42 44v323l40 44l42 -44v-323zM706 -77l-40 -45l-42 45v320l40 44l42 -44v-320zM103 360l-40 -44l-42 44v321l40 44l42 -44v-321zM651 -135l-44 -42h-185l-44 40l44 42h185zM103 -77l-40 -45l-42 45v320l40 44l42 -44v-320zM349 -135l-44 -42h-185 l-44 40l44 42h185z" />
<glyph unicode="v" d="M706 360l-40 -44l-42 44v323l40 44l42 -44v-323zM609 160l-168 -240h-22v106l154 220h36v-86zM103 360l-40 -44l-42 44v321l40 44l42 -44v-321zM308 -80h-22l-168 240v86h36l154 -220v-106z" />
<glyph unicode="w" d="M706 360l-40 -44l-42 44v323l40 44l42 -44v-323zM706 -77l-40 -45l-42 45v320l40 44l42 -44v-320zM609 -80h-22l-168 240v86h37l153 -220v-106zM103 360l-40 -44l-42 44v321l40 44l42 -44v-321zM308 160l-168 -240h-22v106l153 220h37v-86zM103 -77l-40 -45l-42 45v320 l40 44l42 -44v-320z" />
<glyph unicode="x" d="M609 577l-153 -219h-37v86l168 240h22v-107zM308 358h-37l-153 219v107h22l168 -240v-86zM609 -80h-22l-168 240v86h37l153 -220v-106zM308 160l-168 -240h-22v106l153 220h37v-86z" />
<glyph unicode="y" d="M609 577l-153 -219h-37v86l168 240h22v-107zM308 358h-37l-153 219v107h22l168 -240v-86zM405 -77l-40 -45l-43 45v320l40 44l43 -44v-320z" />
<glyph unicode="z" d="M651 741l-44 -42h-185l-44 40l44 42h185zM609 577l-153 -219h-37v86l168 240h22v-107zM349 741l-44 -42h-185l-44 40l44 42h185zM651 -135l-44 -42h-185l-44 40l44 42h185zM308 160l-168 -240h-22v106l153 220h37v-86zM349 -135l-44 -42h-185l-44 40l44 42h185z" />
<glyph unicode="{" d="M651 741l-44 -42h-185l-44 40l44 42h185zM405 360l-40 -44l-43 44v321l40 44l43 -44v-321zM405 -77l-40 -45l-43 45v320l40 44l43 -44v-320zM651 -135l-44 -42h-185l-44 40l44 42h185zM349 303l-44 -42h-185l-44 40l44 42h185z" />
<glyph unicode="|" d="M405 360l-40 -44l-43 44v321l40 44l43 -44v-321zM405 -77l-40 -45l-43 45v320l40 44l43 -44v-320z" />
<glyph unicode="}" d="M349 741l-44 -42h-185l-44 40l44 42h185zM405 360l-40 -44l-43 44v321l40 44l43 -44v-321zM405 -77l-40 -45l-43 45v320l40 44l43 -44v-320zM349 -135l-44 -42h-185l-44 40l44 42h185zM651 303l-44 -42h-185l-44 40l44 42h185z" />
<glyph unicode="&#xa0;" />
<glyph unicode="&#xaa;" d="M609 358h-36l-154 219v107h22l168 -240v-86zM651 303l-44 -42h-185l-44 40l44 42h185zM706 -77l-40 -45l-42 45v320l40 44l42 -44v-320zM308 577l-154 -219h-36v86l168 240h22v-107zM349 303l-44 -42h-185l-44 40l44 42h185zM103 -77l-40 -45l-42 45v320l40 44l42 -44 v-320z" />
<glyph unicode="&#xad;" d="M651 303l-44 -42h-185l-44 40l44 42h185zM349 303l-44 -42h-185l-44 40l44 42h185z" />
<glyph unicode="&#xb2;" d="M651 741l-44 -42h-185l-44 40l44 42h185zM706 360l-40 -44l-42 44v323l40 44l42 -44v-323zM349 741l-44 -42h-185l-44 40l44 42h185zM651 303l-44 -42h-185l-44 40l44 42h185zM349 303l-44 -42h-185l-44 40l44 42h185zM651 -135l-44 -42h-185l-44 40l44 42h185zM103 -77 l-40 -45l-42 45v320l40 44l42 -44v-320zM349 -135l-44 -42h-185l-44 40l44 42h185z" />
<glyph unicode="&#xb3;" d="M651 741l-44 -42h-185l-44 40l44 42h185zM706 360l-40 -44l-42 44v323l40 44l42 -44v-323zM349 741l-44 -42h-185l-44 40l44 42h185zM651 303l-44 -42h-185l-44 40l44 42h185zM706 -77l-40 -45l-42 45v320l40 44l42 -44v-320zM651 -135l-44 -42h-185l-44 40l44 42h185z M349 -135l-44 -42h-185l-44 40l44 42h185z" />
<glyph unicode="&#xb9;" d="M349 741l-44 -42h-185l-44 40l44 42h185zM405 360l-40 -44l-43 44v321l40 44l43 -44v-321zM405 -77l-40 -45l-43 45v320l40 44l43 -44v-320zM651 -135l-44 -42h-185l-44 40l44 42h185zM349 -135l-44 -42h-185l-44 40l44 42h185z" />
<glyph unicode="&#xba;" d="M651 741l-44 -42h-185l-44 40l44 42h185zM706 360l-40 -44l-42 44v323l40 44l42 -44v-323zM349 741l-44 -42h-185l-44 40l44 42h185zM706 -77l-40 -45l-42 45v320l40 44l42 -44v-320zM103 360l-40 -44l-42 44v321l40 44l42 -44v-321zM651 -135l-44 -42h-185l-44 40l44 42 h185zM103 -77l-40 -45l-42 45v320l40 44l42 -44v-320zM349 -135l-44 -42h-185l-44 40l44 42h185z" />
<glyph unicode="&#xc0;" d="M382 841h-37l-153 219v107h22l168 -240v-86zM609 358h-36l-154 219v107h22l168 -240v-86zM651 303l-44 -42h-185l-44 40l44 42h185zM706 -77l-40 -45l-42 45v320l40 44l42 -44v-320zM308 577l-154 -219h-36v86l168 240h22v-107zM349 303l-44 -42h-185l-44 40l44 42h185z M103 -77l-40 -45l-42 45v320l40 44l42 -44v-320z" />
<glyph unicode="&#xc2;" d="M609 841h-36l-154 219v107h22l168 -240v-86zM308 1060l-154 -219h-36v86l168 240h22v-107zM609 358h-36l-154 219v107h22l168 -240v-86zM651 303l-44 -42h-185l-44 40l44 42h185zM706 -77l-40 -45l-42 45v320l40 44l42 -44v-320zM308 577l-154 -219h-36v86l168 240h22 v-107zM349 303l-44 -42h-185l-44 40l44 42h185zM103 -77l-40 -45l-42 45v320l40 44l42 -44v-320z" />
<glyph unicode="&#xc6;" d="M651 741l-44 -42h-185l-44 40l44 42h185zM405 360l-40 -44l-43 44v321l40 44l43 -44v-321zM651 303l-44 -42h-185l-44 40l44 42h185zM308 577l-154 -219h-36v86l168 240h22v-107zM349 303l-44 -42h-185l-44 40l44 42h185zM405 -77l-40 -45l-43 45v320l40 44l43 -44v-320z M651 -135l-44 -42h-185l-44 40l44 42h185zM103 -77l-40 -45l-42 45v320l40 44l42 -44v-320z" />
<glyph unicode="&#xc8;" d="M382 841h-37l-153 219v107h22l168 -240v-86zM651 741l-44 -42h-185l-44 40l44 42h185zM349 741l-44 -42h-185l-44 40l44 42h185zM651 303l-44 -42h-185l-44 40l44 42h185zM103 360l-40 -44l-42 44v321l40 44l42 -44v-321zM349 303l-44 -42h-185l-44 40l44 42h185z M651 -135l-44 -42h-185l-44 40l44 42h185zM103 -77l-40 -45l-42 45v320l40 44l42 -44v-320zM349 -135l-44 -42h-185l-44 40l44 42h185z" />
<glyph unicode="&#xca;" d="M609 841h-36l-154 219v107h22l168 -240v-86zM308 1060l-154 -219h-36v86l168 240h22v-107zM651 741l-44 -42h-185l-44 40l44 42h185zM349 741l-44 -42h-185l-44 40l44 42h185zM651 303l-44 -42h-185l-44 40l44 42h185zM103 360l-40 -44l-42 44v321l40 44l42 -44v-321z M349 303l-44 -42h-185l-44 40l44 42h185zM651 -135l-44 -42h-185l-44 40l44 42h185zM103 -77l-40 -45l-42 45v320l40 44l42 -44v-320zM349 -135l-44 -42h-185l-44 40l44 42h185z" />
<glyph unicode="&#xcc;" d="M382 841h-37l-153 219v107h22l168 -240v-86zM651 741l-44 -42h-185l-44 40l44 42h185zM349 741l-44 -42h-185l-44 40l44 42h185zM405 360l-40 -44l-43 44v321l40 44l43 -44v-321zM405 -77l-40 -45l-43 45v320l40 44l43 -44v-320zM651 -135l-44 -42h-185l-44 40l44 42h185 zM349 -135l-44 -42h-185l-44 40l44 42h185z" />
<glyph unicode="&#xce;" d="M609 841h-36l-154 219v107h22l168 -240v-86zM308 1060l-154 -219h-36v86l168 240h22v-107zM651 741l-44 -42h-185l-44 40l44 42h185zM349 741l-44 -42h-185l-44 40l44 42h185zM405 360l-40 -44l-43 44v321l40 44l43 -44v-321zM405 -77l-40 -45l-43 45v320l40 44l43 -44 v-320zM651 -135l-44 -42h-185l-44 40l44 42h185zM349 -135l-44 -42h-185l-44 40l44 42h185z" />
<glyph unicode="&#xd2;" d="M382 841h-37l-153 219v107h22l168 -240v-86zM651 741l-44 -42h-185l-44 40l44 42h185zM706 360l-40 -44l-42 44v323l40 44l42 -44v-323zM349 741l-44 -42h-185l-44 40l44 42h185zM706 -77l-40 -45l-42 45v320l40 44l42 -44v-320zM103 360l-40 -44l-42 44v321l40 44 l42 -44v-321zM651 -135l-44 -42h-185l-44 40l44 42h185zM103 -77l-40 -45l-42 45v320l40 44l42 -44v-320zM349 -135l-44 -42h-185l-44 40l44 42h185z" />
<glyph unicode="&#xd4;" d="M609 841h-36l-154 219v107h22l168 -240v-86zM308 1060l-154 -219h-36v86l168 240h22v-107zM651 741l-44 -42h-185l-44 40l44 42h185zM706 360l-40 -44l-42 44v323l40 44l42 -44v-323zM349 741l-44 -42h-185l-44 40l44 42h185zM706 -77l-40 -45l-42 45v320l40 44l42 -44 v-320zM103 360l-40 -44l-42 44v321l40 44l42 -44v-321zM651 -135l-44 -42h-185l-44 40l44 42h185zM103 -77l-40 -45l-42 45v320l40 44l42 -44v-320zM349 -135l-44 -42h-185l-44 40l44 42h185z" />
<glyph unicode="&#xd8;" d="M651 741l-44 -42h-185l-44 40l44 42h185zM706 360l-40 -44l-42 44v323l40 44l42 -44v-323zM609 577l-153 -219h-37v86l168 240h22v-107zM349 741l-44 -42h-185l-44 40l44 42h185zM706 -77l-40 -45l-42 45v320l40 44l42 -44v-320zM103 360l-40 -44l-42 44v321l40 44 l42 -44v-321zM651 -135l-44 -42h-185l-44 40l44 42h185zM308 160l-168 -240h-22v106l153 220h37v-86zM103 -77l-40 -45l-42 45v320l40 44l42 -44v-320zM349 -135l-44 -42h-185l-44 40l44 42h185z" />
<glyph unicode="&#xd9;" d="M682 841h-37l-153 219v107h22l168 -240v-86zM706 360l-40 -44l-42 44v323l40 44l42 -44v-323zM706 -77l-40 -45l-42 45v320l40 44l42 -44v-320zM103 360l-40 -44l-42 44v321l40 44l42 -44v-321zM651 -135l-44 -42h-185l-44 40l44 42h185zM103 -77l-40 -45l-42 45v320 l40 44l42 -44v-320zM349 -135l-44 -42h-185l-44 40l44 42h185z" />
<glyph unicode="&#xdb;" d="M909 841h-36l-154 219v107h22l168 -240v-86zM608 1060l-154 -219h-36v86l168 240h22v-107zM706 360l-40 -44l-42 44v323l40 44l42 -44v-323zM706 -77l-40 -45l-42 45v320l40 44l42 -44v-320zM103 360l-40 -44l-42 44v321l40 44l42 -44v-321zM651 -135l-44 -42h-185 l-44 40l44 42h185zM103 -77l-40 -45l-42 45v320l40 44l42 -44v-320zM349 -135l-44 -42h-185l-44 40l44 42h185z" />
<glyph unicode="&#xe0;" d="M382 841h-37l-153 219v107h22l168 -240v-86zM609 358h-36l-154 219v107h22l168 -240v-86zM651 303l-44 -42h-185l-44 40l44 42h185zM706 -77l-40 -45l-42 45v320l40 44l42 -44v-320zM308 577l-154 -219h-36v86l168 240h22v-107zM349 303l-44 -42h-185l-44 40l44 42h185z M103 -77l-40 -45l-42 45v320l40 44l42 -44v-320z" />
<glyph unicode="&#xe2;" d="M609 841h-36l-154 219v107h22l168 -240v-86zM308 1060l-154 -219h-36v86l168 240h22v-107zM609 358h-36l-154 219v107h22l168 -240v-86zM651 303l-44 -42h-185l-44 40l44 42h185zM706 -77l-40 -45l-42 45v320l40 44l42 -44v-320zM308 577l-154 -219h-36v86l168 240h22 v-107zM349 303l-44 -42h-185l-44 40l44 42h185zM103 -77l-40 -45l-42 45v320l40 44l42 -44v-320z" />
<glyph unicode="&#xe6;" d="M651 741l-44 -42h-185l-44 40l44 42h185zM405 360l-40 -44l-43 44v321l40 44l43 -44v-321zM651 303l-44 -42h-185l-44 40l44 42h185zM308 577l-154 -219h-36v86l168 240h22v-107zM349 303l-44 -42h-185l-44 40l44 42h185zM405 -77l-40 -45l-43 45v320l40 44l43 -44v-320z M651 -135l-44 -42h-185l-44 40l44 42h185zM103 -77l-40 -45l-42 45v320l40 44l42 -44v-320z" />
<glyph unicode="&#xe8;" d="M382 841h-37l-153 219v107h22l168 -240v-86zM651 741l-44 -42h-185l-44 40l44 42h185zM349 741l-44 -42h-185l-44 40l44 42h185zM651 303l-44 -42h-185l-44 40l44 42h185zM103 360l-40 -44l-42 44v321l40 44l42 -44v-321zM349 303l-44 -42h-185l-44 40l44 42h185z M651 -135l-44 -42h-185l-44 40l44 42h185zM103 -77l-40 -45l-42 45v320l40 44l42 -44v-320zM349 -135l-44 -42h-185l-44 40l44 42h185z" />
<glyph unicode="&#xea;" d="M609 841h-36l-154 219v107h22l168 -240v-86zM308 1060l-154 -219h-36v86l168 240h22v-107zM651 741l-44 -42h-185l-44 40l44 42h185zM349 741l-44 -42h-185l-44 40l44 42h185zM651 303l-44 -42h-185l-44 40l44 42h185zM103 360l-40 -44l-42 44v321l40 44l42 -44v-321z M349 303l-44 -42h-185l-44 40l44 42h185zM651 -135l-44 -42h-185l-44 40l44 42h185zM103 -77l-40 -45l-42 45v320l40 44l42 -44v-320zM349 -135l-44 -42h-185l-44 40l44 42h185z" />
<glyph unicode="&#xec;" d="M382 841h-37l-153 219v107h22l168 -240v-86zM651 741l-44 -42h-185l-44 40l44 42h185zM349 741l-44 -42h-185l-44 40l44 42h185zM405 360l-40 -44l-43 44v321l40 44l43 -44v-321zM405 -77l-40 -45l-43 45v320l40 44l43 -44v-320zM651 -135l-44 -42h-185l-44 40l44 42h185 zM349 -135l-44 -42h-185l-44 40l44 42h185z" />
<glyph unicode="&#xee;" d="M609 841h-36l-154 219v107h22l168 -240v-86zM308 1060l-154 -219h-36v86l168 240h22v-107zM651 741l-44 -42h-185l-44 40l44 42h185zM349 741l-44 -42h-185l-44 40l44 42h185zM405 360l-40 -44l-43 44v321l40 44l43 -44v-321zM405 -77l-40 -45l-43 45v320l40 44l43 -44 v-320zM651 -135l-44 -42h-185l-44 40l44 42h185zM349 -135l-44 -42h-185l-44 40l44 42h185z" />
<glyph unicode="&#xf2;" d="M382 841h-37l-153 219v107h22l168 -240v-86zM651 741l-44 -42h-185l-44 40l44 42h185zM706 360l-40 -44l-42 44v323l40 44l42 -44v-323zM349 741l-44 -42h-185l-44 40l44 42h185zM706 -77l-40 -45l-42 45v320l40 44l42 -44v-320zM103 360l-40 -44l-42 44v321l40 44 l42 -44v-321zM651 -135l-44 -42h-185l-44 40l44 42h185zM103 -77l-40 -45l-42 45v320l40 44l42 -44v-320zM349 -135l-44 -42h-185l-44 40l44 42h185z" />
<glyph unicode="&#xf4;" d="M609 841h-36l-154 219v107h22l168 -240v-86zM308 1060l-154 -219h-36v86l168 240h22v-107zM651 741l-44 -42h-185l-44 40l44 42h185zM706 360l-40 -44l-42 44v323l40 44l42 -44v-323zM349 741l-44 -42h-185l-44 40l44 42h185zM706 -77l-40 -45l-42 45v320l40 44l42 -44 v-320zM103 360l-40 -44l-42 44v321l40 44l42 -44v-321zM651 -135l-44 -42h-185l-44 40l44 42h185zM103 -77l-40 -45l-42 45v320l40 44l42 -44v-320zM349 -135l-44 -42h-185l-44 40l44 42h185z" />
<glyph unicode="&#xf8;" d="M651 741l-44 -42h-185l-44 40l44 42h185zM706 360l-40 -44l-42 44v323l40 44l42 -44v-323zM609 577l-153 -219h-37v86l168 240h22v-107zM349 741l-44 -42h-185l-44 40l44 42h185zM706 -77l-40 -45l-42 45v320l40 44l42 -44v-320zM103 360l-40 -44l-42 44v321l40 44 l42 -44v-321zM651 -135l-44 -42h-185l-44 40l44 42h185zM308 160l-168 -240h-22v106l153 220h37v-86zM103 -77l-40 -45l-42 45v320l40 44l42 -44v-320zM349 -135l-44 -42h-185l-44 40l44 42h185z" />
<glyph unicode="&#xf9;" d="M682 841h-37l-153 219v107h22l168 -240v-86zM706 360l-40 -44l-42 44v323l40 44l42 -44v-323zM706 -77l-40 -45l-42 45v320l40 44l42 -44v-320zM103 360l-40 -44l-42 44v321l40 44l42 -44v-321zM651 -135l-44 -42h-185l-44 40l44 42h185zM103 -77l-40 -45l-42 45v320 l40 44l42 -44v-320zM349 -135l-44 -42h-185l-44 40l44 42h185z" />
<glyph unicode="&#xfb;" d="M909 841h-36l-154 219v107h22l168 -240v-86zM608 1060l-154 -219h-36v86l168 240h22v-107zM706 360l-40 -44l-42 44v323l40 44l42 -44v-323zM706 -77l-40 -45l-42 45v320l40 44l42 -44v-320zM103 360l-40 -44l-42 44v321l40 44l42 -44v-321zM651 -135l-44 -42h-185 l-44 40l44 42h185zM103 -77l-40 -45l-42 45v320l40 44l42 -44v-320zM349 -135l-44 -42h-185l-44 40l44 42h185z" />
<glyph unicode="&#x152;" horiz-adv-x="1600" d="M1451 741l-44 -42h-185l-44 40l44 42h185zM1149 741l-44 -42h-185l-44 40l44 42h185zM1451 303l-44 -42h-185l-44 40l44 42h185zM903 360l-40 -44l-42 44v321l40 44l42 -44v-321zM1149 303l-44 -42h-185l-44 40l44 42h185zM1451 -135l-44 -42h-185l-44 40l44 42h185z M903 -77l-40 -45l-42 45v320l40 44l42 -44v-320zM1149 -135l-44 -42h-185l-44 40l44 42h185zM651 741l-44 -42h-185l-44 40l44 42h185zM706 360l-40 -44l-42 44v323l40 44l42 -44v-323zM349 741l-44 -42h-185l-44 40l44 42h185zM706 -77l-40 -45l-42 45v320l40 44l42 -44 v-320zM103 360l-40 -44l-42 44v321l40 44l42 -44v-321zM651 -135l-44 -42h-185l-44 40l44 42h185zM103 -77l-40 -45l-42 45v320l40 44l42 -44v-320zM349 -135l-44 -42h-185l-44 40l44 42h185z" />
<glyph unicode="&#x153;" horiz-adv-x="1600" d="M1451 741l-44 -42h-185l-44 40l44 42h185zM1149 741l-44 -42h-185l-44 40l44 42h185zM1451 303l-44 -42h-185l-44 40l44 42h185zM903 360l-40 -44l-42 44v321l40 44l42 -44v-321zM1149 303l-44 -42h-185l-44 40l44 42h185zM1451 -135l-44 -42h-185l-44 40l44 42h185z M903 -77l-40 -45l-42 45v320l40 44l42 -44v-320zM1149 -135l-44 -42h-185l-44 40l44 42h185zM651 741l-44 -42h-185l-44 40l44 42h185zM706 360l-40 -44l-42 44v323l40 44l42 -44v-323zM349 741l-44 -42h-185l-44 40l44 42h185zM706 -77l-40 -45l-42 45v320l40 44l42 -44 v-320zM103 360l-40 -44l-42 44v321l40 44l42 -44v-321zM651 -135l-44 -42h-185l-44 40l44 42h185zM103 -77l-40 -45l-42 45v320l40 44l42 -44v-320zM349 -135l-44 -42h-185l-44 40l44 42h185z" />
<glyph unicode="&#x2c6;" d="M609 358h-36l-154 219v107h22l168 -240v-86zM308 577l-154 -219h-36v86l168 240h22v-107z" />
<glyph unicode="&#x2000;" horiz-adv-x="583" />
<glyph unicode="&#x2001;" horiz-adv-x="1167" />
<glyph unicode="&#x2002;" horiz-adv-x="583" />
<glyph unicode="&#x2003;" horiz-adv-x="1167" />
<glyph unicode="&#x2004;" horiz-adv-x="389" />
<glyph unicode="&#x2005;" horiz-adv-x="291" />
<glyph unicode="&#x2006;" horiz-adv-x="194" />
<glyph unicode="&#x2007;" horiz-adv-x="194" />
<glyph unicode="&#x2008;" horiz-adv-x="145" />
<glyph unicode="&#x2009;" horiz-adv-x="233" />
<glyph unicode="&#x200a;" horiz-adv-x="64" />
<glyph unicode="&#x2010;" d="M651 303l-44 -42h-185l-44 40l44 42h185zM349 303l-44 -42h-185l-44 40l44 42h185z" />
<glyph unicode="&#x2011;" d="M651 303l-44 -42h-185l-44 40l44 42h185zM349 303l-44 -42h-185l-44 40l44 42h185z" />
<glyph unicode="&#x2013;" horiz-adv-x="500" d="M100 250v100h300v-100h-300z" />
<glyph unicode="&#x2014;" horiz-adv-x="1000" d="M100 250v100h800v-100h-800z" />
<glyph unicode="&#x2018;" d="M308 358h-37l-153 219v107h22l168 -240v-86z" />
<glyph unicode="&#x2019;" d="M405 560l-40 -44l-43 44v121l40 44l43 -44v-121z" />
<glyph unicode="&#x201c;" d="M405 560l-40 -44l-43 44v121l40 44l43 -44v-121zM103 560l-40 -44l-42 44v121l40 44l42 -44v-121z" />
<glyph unicode="&#x201d;" d="M405 560l-40 -44l-43 44v121l40 44l43 -44v-121zM103 560l-40 -44l-42 44v121l40 44l42 -44v-121z" />
<glyph unicode="&#x2026;" horiz-adv-x="2400" d="M2036 -104q0 -29 -21.5 -51t-50.5 -22q-30 0 -51.5 21.5t-21.5 51.5q0 31 21 51t52 20q30 0 51 -20.5t21 -50.5zM1236 -104q0 -29 -21.5 -51t-50.5 -22q-30 0 -51.5 21.5t-21.5 51.5q0 31 21 51t52 20q30 0 51 -20.5t21 -50.5zM436 -104q0 -29 -21.5 -51t-50.5 -22 q-30 0 -51.5 21.5t-21.5 51.5q0 31 21 51t52 20q30 0 51 -20.5t21 -50.5z" />
<glyph unicode="&#x202f;" horiz-adv-x="233" />
<glyph unicode="&#x2039;" d="M609 577l-153 -219h-37v86l168 240h22v-107zM609 -80h-22l-168 240v86h37l153 -220v-106z" />
<glyph unicode="&#x203a;" d="M308 358h-37l-153 219v107h22l168 -240v-86zM308 160l-168 -240h-22v106l153 220h37v-86z" />
<glyph unicode="&#x205f;" horiz-adv-x="291" />
<glyph unicode="&#x2122;" horiz-adv-x="1600" d="M1506 360l-40 -44l-42 44v323l40 44l42 -44v-323zM1409 577l-153 -219h-37v86l168 240h22v-107zM1506 -77l-40 -45l-42 45v320l40 44l42 -44v-320zM1108 358h-37l-153 219v107h22l168 -240v-86zM903 360l-40 -44l-42 44v321l40 44l42 -44v-321zM903 -77l-40 -45l-42 45 v320l40 44l42 -44v-320zM651 741l-44 -42h-185l-44 40l44 42h185zM349 741l-44 -42h-185l-44 40l44 42h185zM405 360l-40 -44l-43 44v321l40 44l43 -44v-321zM405 -77l-40 -45l-43 45v320l40 44l43 -44v-320z" />
</font>
</defs>
</svg>
